<?xml version="1.0" encoding="UTF-8"?>
<svg version="1.1" xmlns="http://www.w3.org/2000/svg" width="512" height="512">
<path d="M0 0 C1.90534341 -0.00668677 1.90534341 -0.00668677 3.84917861 -0.01350862 C5.26682906 -0.01341932 6.68447951 -0.01322946 8.10212994 -0.01294994 C9.60187125 -0.01624848 11.10161167 -0.01997403 12.60135096 -0.02409142 C16.73316344 -0.03412047 20.8649614 -0.03782966 24.99678433 -0.04048073 C29.44883698 -0.04438103 33.9008781 -0.05395946 38.35292339 -0.0626936 C49.10892915 -0.08246437 59.86493587 -0.09252437 70.62095526 -0.10142139 C75.68335232 -0.10580273 80.74574834 -0.11116989 85.80814457 -0.11641026 C102.63127233 -0.13342211 119.45439944 -0.14791747 136.27753448 -0.155159 C140.64408971 -0.15706895 145.01064492 -0.15898928 149.37720013 -0.16094494 C150.46251354 -0.16142868 151.54782695 -0.16191242 152.66602864 -0.16241082 C170.25723553 -0.17071558 187.84837452 -0.19606022 205.43955175 -0.22852562 C223.49049516 -0.26156864 241.54140402 -0.2796052 259.59237784 -0.28280324 C269.73125906 -0.28497074 279.87004122 -0.29375468 290.00889301 -0.31926441 C298.64137128 -0.34093366 307.27372644 -0.34904043 315.90622882 -0.33929763 C320.31204397 -0.33474213 324.71760488 -0.33671151 329.12338543 -0.35605907 C333.15579685 -0.37361444 337.18776714 -0.37275557 341.22018274 -0.35716178 C342.67981864 -0.35477407 344.13948448 -0.35916929 345.59907446 -0.37099043 C347.58208318 -0.3860574 349.56524229 -0.37407763 351.54826355 -0.36076355 C352.65010461 -0.36174036 353.75194567 -0.36271717 354.88717586 -0.36372358 C360.06335689 0.47427652 362.97390361 2.96626718 366.3064332 6.90183926 C368.23865067 10.67232786 368.52151309 13.71457608 368.46625805 17.85233021 C368.47207181 18.61384711 368.47788558 19.375364 368.48387551 20.15995717 C368.49848707 22.7146887 368.48458532 25.26846121 368.47082806 27.82318592 C368.47543652 29.67200366 368.48178907 31.52081774 368.48973703 33.36962414 C368.50646094 38.45248892 368.49817003 43.53505395 368.48579216 48.61791992 C368.47675654 54.09857386 368.490704 59.57917559 368.50171185 65.05981922 C368.51951755 75.79736328 368.51564793 86.53479564 368.50406128 97.27234411 C368.49503531 105.99736957 368.49379934 114.72236368 368.49815655 123.44739246 C368.49876948 124.68820902 368.49938241 125.92902558 368.50001392 127.20744264 C368.50129279 129.72797506 368.50258964 132.24850747 368.50390428 134.76903987 C368.51499064 157.74116691 368.503485 180.71324443 368.48253389 203.68535933 C368.46355129 224.65858028 368.46524979 245.6317041 368.48437786 266.6049242 C368.5057939 290.16560905 368.5142174 313.72625252 368.50192881 337.2869482 C368.50065458 339.79831536 368.4993971 342.30968252 368.49815655 344.82104969 C368.49723089 346.67461049 368.49723089 346.67461049 368.49628654 348.56561697 C368.49282986 357.28224418 368.49866885 365.99883698 368.50807476 374.71545887 C368.51928209 385.33513603 368.51628132 395.95469489 368.49495178 406.57435846 C368.48442438 411.99482295 368.4803484 417.41509005 368.49354839 422.83555317 C368.505443 427.79489962 368.49895812 432.75386521 368.47763819 437.71317697 C368.47315968 439.5098585 368.47546627 441.30657203 368.48514134 443.1032331 C368.4972662 445.54131995 368.48487098 447.97809413 368.46625805 450.41611195 C368.47562271 451.11738154 368.48498738 451.81865113 368.49463582 452.54117131 C368.3825971 459.85951847 364.28580761 464.06023162 359.34961224 469.00629139 C358.44187054 469.92033741 357.53412884 470.83438343 356.59887981 471.77612782 C355.61630564 472.75512283 354.63347059 473.73385608 353.65039349 474.71234608 C352.63406949 475.73001914 351.6180424 476.74798878 350.60229778 477.76624012 C348.48061222 479.89086289 346.3553803 482.01185475 344.22754192 484.13031483 C341.50380371 486.84263019 338.78918268 489.56386583 336.07713604 492.28786564 C333.98408185 494.38815155 331.8862818 496.48364501 329.78702068 498.57772541 C328.78404318 499.57937156 327.78254147 500.58249777 326.78256512 501.58714008 C325.38528057 502.98951442 323.98087586 504.3847835 322.57617474 505.77972889 C321.77993694 506.5743755 320.98369915 507.3690221 320.16333294 508.18774891 C316.40482503 511.51246254 313.57707732 512.43934455 308.58789349 512.50922108 C307.67265911 512.53758045 306.75742474 512.56593983 305.81445599 512.59515858 C298.91733036 511.48028074 294.06987589 505.50892777 289.37695599 500.74359608 C288.67517223 500.03898243 287.97338848 499.33436878 287.25033855 498.60840321 C285.02475696 496.37168673 282.8062571 494.12809419 280.58789349 491.88422108 C279.07403395 490.36032311 277.55971578 488.83688061 276.04492474 487.31390858 C272.34558936 483.59260166 268.65203301 479.86563448 264.96289349 476.13422108 C260.16149641 480.12927451 255.66565098 484.31546785 251.29492474 488.77484608 C250.06002975 490.02237165 248.82499982 491.26976366 247.58984661 492.51703358 C245.67230647 494.45948324 243.75642518 496.4035177 241.84302044 498.35004139 C239.9772051 500.246031 238.10523987 502.13577406 236.23242474 504.02484608 C235.37763279 504.89982746 235.37763279 504.89982746 234.50557232 505.79248524 C229.89613176 510.43089101 227.06313953 512.41951825 220.52539349 512.44672108 C219.59855755 512.46347889 218.67172161 512.4802367 217.71679974 512.49750233 C211.024063 511.61463067 206.76670941 506.20024842 202.25586224 501.62250233 C201.53046749 500.89427769 200.80507275 500.16605305 200.05769634 499.41576099 C197.75051063 497.09741406 195.45039133 494.772197 193.15039349 492.44672108 C191.58379781 490.87009039 190.01674558 489.29391321 188.44922161 487.71820545 C184.61513952 483.86211683 180.78682985 480.00036963 176.96289349 476.13422108 C173.92593494 477.49081869 171.85254057 479.00640501 169.52710247 481.37469959 C168.87640285 482.03200565 168.22570324 482.68931171 167.55528545 483.36653614 C166.86350704 484.07491123 166.17172863 484.78328632 165.45898724 485.51312733 C164.73929256 486.24039524 164.01959789 486.96766315 163.27809429 487.71696949 C160.98066928 490.03881647 158.68979129 492.3669603 156.40039349 494.69672108 C153.38395739 497.76621563 150.36107632 500.82914223 147.33398724 503.88812733 C146.64018459 504.59852665 145.94638195 505.30892597 145.23155499 506.04085255 C144.58400753 506.69500645 143.93646008 507.34916035 143.26928997 508.02313709 C142.70177517 508.60112553 142.13426037 509.17911396 141.54954815 509.7746172 C138.56635475 512.33091468 135.41751602 512.34772339 131.65039349 512.44672108 C130.72613567 512.48410389 129.80187786 512.5214867 128.84961224 512.56000233 C121.93302925 511.53982973 117.06532179 505.50430341 112.37695599 500.74359608 C111.67517223 500.03898243 110.97338848 499.33436878 110.25033855 498.60840321 C108.02475696 496.37168673 105.8062571 494.12809419 103.58789349 491.88422108 C102.07403395 490.36032311 100.55971578 488.83688061 99.04492474 487.31390858 C95.34558936 483.59260166 91.65203301 479.86563448 87.96289349 476.13422108 C83.16149641 480.12927451 78.66565098 484.31546785 74.29492474 488.77484608 C73.06002975 490.02237165 71.82499982 491.26976366 70.58984661 492.51703358 C68.67230647 494.45948324 66.75642518 496.4035177 64.84302044 498.35004139 C62.9772051 500.246031 61.10523987 502.13577406 59.23242474 504.02484608 C58.37763279 504.89982746 58.37763279 504.89982746 57.50557232 505.79248524 C52.94085577 510.38588596 50.06532458 512.41850075 43.58789349 512.50922108 C42.67265911 512.53758045 41.75742474 512.56593983 40.81445599 512.59515858 C35.11882432 511.67449483 31.05620589 507.47841401 27.09082317 503.52093983 C26.17677715 502.61319813 25.26273113 501.70545643 24.32098675 500.77020741 C23.34199173 499.78763323 22.36325848 498.80479818 21.38476849 497.82172108 C20.36709543 496.80539708 19.34912579 495.78936999 18.33087444 494.77362537 C16.20625168 492.65193981 14.08525981 490.52670789 11.96679974 488.39886951 C9.25448437 485.6751313 6.53324873 482.96051028 3.80924892 480.24846363 C1.70896301 478.15540944 -0.38653044 476.05760939 -2.48061085 473.95834827 C-3.482257 472.95537077 -4.48538321 471.95386906 -5.49002552 470.95389271 C-6.89239986 469.55660816 -8.28766894 468.15220345 -9.68261433 466.74750233 C-10.47726093 465.95126453 -11.27190754 465.15502674 -12.09063435 464.33466053 C-15.95530827 459.96574064 -16.32760015 456.37277169 -16.29437542 450.6622076 C-16.29963453 449.52339379 -16.29963453 449.52339379 -16.30499989 448.36157364 C-16.31434642 445.80289874 -16.30938224 443.24444983 -16.30453205 440.68576527 C-16.30826667 438.83867674 -16.31286743 436.9915898 -16.3182627 435.14450538 C-16.33053132 430.05720337 -16.3302277 424.96996692 -16.32787395 419.88265347 C-16.32746675 414.40061151 -16.33849553 408.91859084 -16.34798908 403.43655872 C-16.36462098 392.6920886 -16.37009961 381.94764043 -16.37121384 371.20315851 C-16.37216323 362.47237055 -16.37626807 353.74158984 -16.38261509 345.01080418 C-16.39736493 324.30077943 -16.40966419 303.59075952 -16.40861797 282.88072872 C-16.40858682 282.2182227 -16.40855566 281.55571668 -16.40852356 280.87313472 C-16.40835734 277.51517172 -16.40815926 274.15720872 -16.40795414 270.79924573 C-16.40791425 270.1323253 -16.40787436 269.46540488 -16.40783326 268.77827474 C-16.40775239 267.42959892 -16.40766879 266.08092309 -16.40758248 264.73224727 C-16.40635679 243.74593089 -16.42137257 222.75967912 -16.44872761 201.77338123 C-16.47943791 178.20319655 -16.49663541 154.63304282 -16.49480116 131.06283462 C-16.49413632 118.57989784 -16.49966999 106.09703393 -16.52115726 93.61411381 C-16.53933229 82.98708019 -16.54374669 72.36015248 -16.53013842 61.73311009 C-16.52359029 56.30860106 -16.52355796 50.8842954 -16.54084492 45.45980549 C-16.55649923 40.49669182 -16.55379058 35.53394408 -16.53627665 30.57083975 C-16.53318985 28.77274711 -16.53690189 26.97462767 -16.5479968 25.17656662 C-16.56205886 22.73657041 -16.55157915 20.29786828 -16.53488445 17.85791683 C-16.54978899 16.8051549 -16.54978899 16.8051549 -16.56499463 15.73112506 C-16.48042636 9.90465677 -14.17323521 6.61213036 -10.47460651 2.32172108 C-7.30790599 -0.29424892 -3.90637649 0.00634385 0 0 Z M14.96289349 30.13422108 C14.14661857 103.5654135 14.14661857 103.5654135 13.59570599 176.99750233 C13.54089274 186.9176001 13.48432129 196.83768548 13.42480755 206.75775623 C13.41742258 208.00092716 13.41003762 209.24409808 13.40242887 210.52494085 C13.2809314 230.54676472 13.06035139 250.56631712 12.8026152 270.58679792 C12.53996338 291.16205704 12.38508065 311.7361344 12.32841563 332.31300092 C12.2901557 344.9925857 12.16975206 357.66575244 11.94123241 370.34335884 C11.79221094 379.05926607 11.74870814 387.77189946 11.78485492 396.48898545 C11.80264943 401.50734971 11.77716402 406.51458509 11.62514019 411.53092098 C11.11275339 429.27950869 10.76505595 444.25499322 23.28024976 457.96536376 C29.36540853 464.24495606 36.00404467 469.85292732 42.96289349 475.13422108 C44.09077649 474.17167848 45.21806807 473.20844284 46.34510708 472.24491215 C47.28684218 471.44042019 47.28684218 471.44042019 48.24760222 470.61967587 C49.99140577 469.10952923 51.65816208 467.55457464 53.2802763 465.91449451 C53.83064556 465.36082203 54.38101482 464.80714954 54.94806194 464.2366991 C55.5149876 463.66147511 56.08191326 463.08625111 56.66601849 462.49359608 C57.57272289 461.58121174 57.57272289 461.58121174 58.49774456 460.65039539 C60.40527121 458.73077588 62.30948311 456.80792161 64.21289349 454.88422108 C66.73605096 452.33446405 69.26250975 449.78804524 71.79101849 447.24359608 C72.36604107 446.66027515 72.94106365 446.07695423 73.53351116 445.47595692 C79.95944966 439.01054675 79.95944966 439.01054675 85.21289349 438.32172108 C85.93992474 438.21215076 86.66695599 438.10258045 87.41601849 437.98968983 C95.26134965 438.43490034 99.91536771 443.5452648 105.08398724 448.86468983 C105.82874813 449.61511051 106.57350903 450.3655312 107.34083843 451.1386919 C109.70362697 453.52376519 112.05207935 455.92240371 114.40039349 458.32172108 C116.00558488 459.94698749 117.61169523 461.57134684 119.21875286 463.19476795 C123.14416743 467.16414505 127.05792275 471.14473567 130.96289349 475.13422108 C135.74394118 471.16666826 140.18116501 467.00078309 144.49023724 462.52875233 C145.70642832 461.28532098 146.9232441 460.04250039 148.14062786 458.8002367 C150.02699044 456.87061682 151.90919395 454.93758244 153.78100872 452.99384022 C155.60997653 451.09792105 157.4547678 449.21863151 159.30273724 447.34125233 C160.12656147 446.47401287 160.12656147 446.47401287 160.96702862 445.58925343 C165.22289989 441.30482916 169.75996227 438.33127773 176.02330303 438.03761768 C184.63548999 438.70129806 189.83570102 444.72356247 195.54883099 450.52484608 C196.25061474 451.22945972 196.95239849 451.93407337 197.67544842 452.66003895 C199.90103001 454.89675543 202.11952987 457.14034797 204.33789349 459.38422108 C205.85175302 460.90811904 207.36607119 462.43156155 208.88086224 463.95453358 C212.58019761 467.67584049 216.27375396 471.40280767 219.96289349 475.13422108 C224.84162556 471.08746766 229.36701154 466.82199968 233.77929974 462.27484608 C235.05033989 460.98144064 236.32183778 459.68848489 237.59375286 458.39593983 C239.56880046 456.38370153 241.540563 454.36859687 243.50464153 452.34564686 C245.42039966 450.37535689 247.34866528 448.41804677 249.27929974 446.46234608 C250.1514185 445.55455402 250.1514185 445.55455402 251.04115582 444.62842274 C255.03563802 440.60865192 258.42008638 438.60533904 264.16601849 437.84125233 C276.21138797 438.46191068 287.01375885 454.06565068 295.08789349 462.19672108 C296.34286553 463.45672209 297.59807234 464.71648932 298.85351849 465.97601795 C301.89268433 469.02606961 304.92867576 472.07924728 307.96289349 475.13422108 C308.88521456 474.32626654 309.80753563 473.518312 310.75780582 472.68587399 C312.97077034 470.76751878 315.19726583 468.9628907 317.56278634 467.23365283 C326.92107137 460.3548575 336.3747773 452.67331938 338.64616244 440.75302477 C340.09557919 430.35343458 339.76400723 419.79510587 339.51633716 409.32635069 C339.42031781 404.22516765 339.45355018 399.12449797 339.47018719 394.02266407 C339.48166143 385.20742207 339.41331055 376.39579304 339.28895473 367.58146 C339.10929002 354.83846223 339.05277734 342.09719128 339.02521892 329.3530644 C338.97720218 308.67203262 338.83116394 287.99292207 338.62256145 267.31293201 C338.4202726 247.23783216 338.26497433 227.16325889 338.17138958 207.08734608 C338.16549364 205.83494326 338.15959769 204.58254044 338.15352309 203.29218602 C338.10776926 193.49592865 338.06471921 183.69965987 338.02252269 173.90338659 C337.81540029 125.97856739 337.37271554 78.05856391 336.96289349 30.13422108 C230.70289349 30.13422108 124.44289349 30.13422108 14.96289349 30.13422108 Z " fill="#000000" transform="translate(80.03710651397705,-0.13422107696533203)"/>
<path d="M0 0 C4.59894783 2.21430822 8.02378668 5.23745599 10 10 C10.47774224 13.80662103 10.37844494 17.54635277 10.25 21.375 C10.23195313 22.39722656 10.21390625 23.41945313 10.1953125 24.47265625 C10.14839491 26.98274749 10.08276729 29.49087764 10 32 C10.60473145 31.98428955 11.20946289 31.9685791 11.83251953 31.95239258 C14.59658296 31.8896812 17.36049621 31.85089589 20.125 31.8125 C21.07632813 31.78736328 22.02765625 31.76222656 23.0078125 31.73632812 C30.13676896 31.66206816 34.45290455 32.62271091 39.8125 37.625 C42.71254412 41.40725819 43.26999585 45.31189031 43 50 C41.33178897 55.88780365 38.8389666 58.57239866 34 62 C31.06042903 62.97985699 29.16668081 63.12435586 26.10473633 63.12597656 C24.61222099 63.13168671 24.61222099 63.13168671 23.08955383 63.13751221 C22.01457138 63.13853943 20.93958893 63.13956665 19.83203125 63.140625 C17.55402649 63.15895688 15.27603143 63.17852754 12.99804688 63.19921875 C9.40795587 63.2281533 5.81848656 63.24999918 2.22827148 63.25048828 C-1.23770255 63.2538322 -4.7022443 63.28844454 -8.16796875 63.328125 C-9.23283005 63.3210553 -10.29769135 63.3139856 -11.39482117 63.30670166 C-18.12625004 63.41602329 -22.8496151 64.49169816 -28 69 C-31.41426531 73.6946148 -31.73645245 78.38076695 -31 84 C-29.30835942 88.71878688 -27.13951382 91.20582817 -23 94 C-19.60453238 95.13182254 -16.92711389 95.15883616 -13.34765625 95.2109375 C-11.9993378 95.23905315 -10.6510307 95.26771779 -9.30273438 95.296875 C-7.19686796 95.33772312 -5.09120265 95.37463569 -2.98510742 95.40136719 C13.88227698 95.63355143 28.17855303 98.62120397 40.7421875 110.5546875 C50.66050271 121.29666902 53.93883485 134.37556335 53.3828125 148.65234375 C52.70287865 158.48572665 48.85334358 166.23306332 43 174 C42.4225 174.86625 41.845 175.7325 41.25 176.625 C34.30613975 183.95463027 24.87223855 189.74423151 14.71875 190.6015625 C13.3874707 190.71878662 13.3874707 190.71878662 12.02929688 190.83837891 C11.35962891 190.89171387 10.68996094 190.94504883 10 191 C10.0314209 191.99797607 10.0314209 191.99797607 10.06347656 193.01611328 C10.14700609 196.05225302 10.19877603 199.08815043 10.25 202.125 C10.28351563 203.17171875 10.31703125 204.2184375 10.3515625 205.296875 C10.43066006 211.54558238 10.2358404 215.2736119 6 220 C2.12156463 223.12429516 -2.06785087 224.12739869 -7 224 C-11.74619716 223.1768588 -14.97721092 221.52396659 -17.9375 217.6875 C-21.70358407 212.21072012 -21.13265278 205.49271399 -21.0625 199.125 C-21.05798828 198.34125 -21.05347656 197.5575 -21.04882812 196.75 C-21.03714093 194.83329986 -21.01920908 192.91663952 -21 191 C-21.9446814 191.03927612 -21.9446814 191.03927612 -22.90844727 191.0793457 C-25.79287244 191.18399785 -28.67689724 191.24853794 -31.5625 191.3125 C-33.0484668 191.3753418 -33.0484668 191.3753418 -34.56445312 191.43945312 C-41.4305456 191.55350782 -44.93287526 190.73385076 -50 186 C-52.5638445 182.35089178 -53.26612479 178.28194276 -52.9375 173.875 C-51.73276403 168.89542466 -49.98373284 165.66250057 -46.04003906 162.35742188 C-41.45391066 160.30964851 -37.07712882 160.57900335 -32.109375 160.59375 C-30.5205954 160.57749573 -30.5205954 160.57749573 -28.89971924 160.56091309 C-25.5164175 160.52667985 -22.13345203 160.51107119 -18.75 160.5 C-14.30697115 160.48537013 -9.86468558 160.45153928 -5.421875 160.40625 C-4.41219666 160.40927124 -3.40251831 160.41229248 -2.36224365 160.41540527 C4.14423707 160.34717496 11.52570008 160.10710599 16.62335205 155.54821777 C20.66314253 150.82154649 21.35104838 147.6469346 21.28125 141.609375 C20.83458164 137.4652852 19.51556007 135.33141739 17 132 C11.87197529 128.15398147 7.35062466 127.88111358 1.06640625 127.82421875 C-0.31967604 127.80098427 -1.70574373 127.77686557 -3.09179688 127.75195312 C-5.25033842 127.71718891 -7.40835428 127.68768377 -9.56713867 127.67407227 C-25.90962389 127.55119644 -38.49247884 124.03507417 -50.75 112.6875 C-60.5208911 102.3635396 -63.5177763 90.94505784 -63.41967773 77.11181641 C-63.06526697 65.55870937 -59.27442566 56.92205198 -52 48 C-51.49984375 47.36320312 -50.9996875 46.72640625 -50.484375 46.0703125 C-43.27546494 37.87836925 -31.65487641 33.20296992 -21 32 C-21.03480469 30.87722656 -21.06960937 29.75445312 -21.10546875 28.59765625 C-21.5195713 9.86683567 -21.5195713 9.86683567 -16.53515625 4.390625 C-11.20784022 -0.24635423 -6.85777336 -0.74907986 0 0 Z " fill="#000000" transform="translate(261,80)"/>
<path d="M0 0 C1.64660096 -0.00378706 3.29319873 -0.00929028 4.93978882 -0.01637268 C9.39425781 -0.03029198 13.84833904 -0.01918341 18.30278635 -0.00266147 C22.97113733 0.01122399 27.63946661 0.00472515 32.30783081 0.00120544 C40.14408595 -0.00149338 47.98018763 0.01195255 55.81640625 0.03515625 C64.87104409 0.06178249 73.92542571 0.06350597 82.98008931 0.05176789 C91.70036092 0.04098378 100.42054002 0.04718095 109.14080429 0.06132317 C112.84801297 0.0670756 116.55515378 0.06700617 120.26236343 0.06225777 C124.62748515 0.05748051 128.99232672 0.0676206 133.35739517 0.08921242 C134.95775406 0.09476958 136.55813993 0.09525541 138.15850067 0.09025955 C140.34581407 0.08428835 142.53227613 0.09684567 144.71951294 0.11402893 C145.9424814 0.11645883 147.16544987 0.11888872 148.42547798 0.12139225 C152.7820824 0.61751766 156.15586481 2.03386952 159.40966797 5.00170898 C163.27505901 9.96595701 164.19103526 13.21970557 163.76513672 19.50170898 C161.87186176 24.76080608 159.16730457 27.29179493 154.76513672 30.50170898 C151.33241946 31.64594807 148.68869622 31.63337974 145.06681824 31.64215088 C144.38245156 31.645122 143.69808488 31.64809312 142.99297982 31.65115428 C140.69460769 31.65984146 138.39628765 31.66134954 136.09790039 31.6628418 C134.45204049 31.66746996 132.80618167 31.67249462 131.1603241 31.67788696 C126.6850354 31.69101316 122.20976171 31.69745635 117.73445678 31.70189762 C114.93882212 31.70482799 112.14319157 31.70893273 109.34755898 31.71340179 C100.60168578 31.72707731 91.85582195 31.7367437 83.1099388 31.74060369 C73.01220941 31.74508472 62.91461537 31.76263446 52.81692713 31.79160428 C45.01301298 31.81321662 37.20913692 31.82330773 29.40519315 31.8246448 C24.74365463 31.82569315 20.08224334 31.83160733 15.42073631 31.84946442 C11.03520491 31.86593735 6.64989647 31.86810441 2.26434517 31.85932541 C0.65591205 31.85855462 -0.95253302 31.86290334 -2.56093597 31.87278366 C-4.75942055 31.88549535 -6.95711453 31.87963126 -9.15559387 31.86920166 C-10.99978771 31.8714015 -10.99978771 31.8714015 -12.88123798 31.87364578 C-17.24962186 31.38916628 -20.61819148 29.97629799 -23.87939453 27.00170898 C-27.73253507 22.05319405 -28.74889975 18.77295385 -28.23486328 12.50170898 C-26.83583799 7.72541882 -25.33603059 5.2457408 -21.14602661 2.41465759 C-14.55128678 -0.76054267 -7.1501369 -0.04686571 0 0 Z " fill="#000000" transform="translate(188.23486328125,352.498291015625)"/>
</svg>
